<svg width="528" height="87.5" viewBox="0 0 528 87.5" xmlns="http://www.w3.org/2000/svg"><g id="svgGroup" stroke-linecap="round" fill-rule="evenodd" font-size="9pt" stroke="#000000" stroke-width="0.25mm" fill="#ffffff" style="stroke:#000000;stroke-width:0.25mm;fill:#ffffff"><path d="M 48.7 38 L 47.1 37.4 Q 45.897 37.863 45.122 37.897 A 2.744 2.744 0 0 1 45 37.9 Q 42.9 37.9 42.9 36.2 Q 42.9 34.19 45.267 33.402 A 7.67 7.67 0 0 1 46 33.2 Q 47.738 32.743 50.395 34.543 A 16.626 16.626 0 0 1 50.9 34.9 Q 54.8 30.5 58.45 26.5 Q 62.1 22.5 65.1 19.95 A 20.975 20.975 0 0 1 66.441 18.895 Q 68.522 17.4 69.9 17.4 Q 72.3 17.4 72.3 19.6 Q 72.3 20.5 71.85 21.45 A 3.133 3.133 0 0 1 71.639 21.832 Q 71.364 22.249 71.04 22.36 A 0.736 0.736 0 0 1 70.8 22.4 Q 70.268 22.489 70.208 21.948 A 1.341 1.341 0 0 1 70.2 21.8 Q 70.2 21.352 70.682 20.744 A 4.76 4.76 0 0 1 70.8 20.6 L 70.8 20.2 A 1.426 1.426 0 0 0 70.757 19.839 A 0.954 0.954 0 0 0 70.4 19.3 A 0.913 0.913 0 0 0 69.889 19.158 Q 66.678 19.158 54.4 36.2 Q 55.5 36.3 56.75 36.35 A 63.037 63.037 0 0 0 58.54 36.395 A 74.527 74.527 0 0 0 59.4 36.4 Q 82.6 36.4 88.4 24.4 Q 89.444 22.138 89.58 20.178 A 8.373 8.373 0 0 0 89.6 19.6 A 8.931 8.931 0 0 0 87.342 13.675 A 13.547 13.547 0 0 0 85.5 11.9 A 17.374 17.374 0 0 0 81.06 9.325 Q 78.681 8.359 75.75 7.85 Q 69.7 6.8 63.7 6.8 A 55.384 55.384 0 0 0 49.089 8.86 Q 42.432 10.678 35.4 14.1 A 58.414 58.414 0 0 0 27.882 18.433 Q 19.306 24.353 17.616 31.446 A 15.275 15.275 0 0 0 17.2 35 A 4.184 4.184 0 0 0 17.55 36.774 Q 18.372 38.548 21.129 38.842 A 11.076 11.076 0 0 0 22.3 38.9 A 14.084 14.084 0 0 0 26.317 38.273 Q 28.05 37.757 29.916 36.818 A 32.599 32.599 0 0 0 32.9 35.1 Q 36.247 32.869 38.216 30.595 A 13.58 13.58 0 0 0 39.9 28.2 A 6.391 6.391 0 0 1 40.181 27.726 Q 40.673 26.975 41.113 26.907 A 0.57 0.57 0 0 1 41.2 26.9 A 0.88 0.88 0 0 1 41.39 26.919 Q 41.855 27.022 41.6 27.7 Q 39.859 32.833 34.17 36.621 A 29.739 29.739 0 0 1 33.1 37.3 A 27.013 27.013 0 0 1 25.774 40.454 A 23.458 23.458 0 0 1 19.9 41.2 Q 11.8 41.2 12.4 36 A 26.048 26.048 0 0 1 19.093 21.483 Q 22.103 18.079 26.432 15.069 A 54.704 54.704 0 0 1 28.5 13.7 A 58.243 58.243 0 0 1 48.969 5.88 A 79.004 79.004 0 0 1 63.5 4.6 Q 71.3 4.6 78.65 6 A 32.63 32.63 0 0 1 84.168 7.534 Q 87.869 8.944 90.6 11.2 A 15.069 15.069 0 0 1 93.43 14.256 A 11.011 11.011 0 0 1 95.4 20.6 Q 95.4 22.9 94.3 25.6 Q 92.6 29.5 89.1 32.25 Q 85.6 35 81 36.7 Q 76.4 38.4 71.3 39.2 A 65.181 65.181 0 0 1 63.211 39.972 A 58.642 58.642 0 0 1 61.4 40 A 60.762 60.762 0 0 1 57.716 39.892 A 52.475 52.475 0 0 1 56.45 39.8 Q 54.1 39.6 52.1 39.2 A 179.283 179.283 0 0 1 52.444 40.302 Q 53.064 42.311 54.2 46.1 Q 55.542 50.573 57.524 57.446 A 2173.185 2173.185 0 0 1 58 59.1 Q 58.678 61.23 59.872 63.735 A 51.12 51.12 0 0 0 59.95 63.9 Q 61.2 66.5 62.8 68.8 A 20.56 20.56 0 0 0 64.571 71.018 A 16.087 16.087 0 0 0 66.25 72.6 A 7.725 7.725 0 0 0 67.645 73.514 Q 68.685 74.036 69.741 74.093 A 4.806 4.806 0 0 0 70 74.1 Q 73.488 74.1 76.01 68.239 A 32.103 32.103 0 0 0 77 65.6 A 11.234 11.234 0 0 1 77.183 64.946 Q 77.481 64.004 77.811 63.722 A 0.444 0.444 0 0 1 78.1 63.6 A 0.363 0.363 0 0 1 78.363 63.738 Q 78.708 64.112 79 65.5 A 1.634 1.634 0 0 1 79.057 65.73 Q 79.1 65.972 79.1 66.3 Q 79.1 68.642 76.828 71.958 A 26.571 26.571 0 0 1 76.3 72.7 A 18.042 18.042 0 0 1 74.271 75.234 Q 71.378 78.2 68 78.2 A 8.754 8.754 0 0 1 61.523 75.399 A 11.86 11.86 0 0 1 61.15 75 Q 58.478 72 56.466 67.418 A 41.372 41.372 0 0 1 56.2 66.8 Q 54.1 61.8 52.5 56.5 A 207.894 207.894 0 0 1 51.418 52.851 Q 49.094 44.717 49.34 42.443 A 2.384 2.384 0 0 1 49.4 42.1 Q 45.344 47.531 42.044 51.71 A 255.814 255.814 0 0 1 39.2 55.25 Q 34.9 60.5 32.2 63.1 A 51.298 51.298 0 0 1 24.61 69.234 Q 19.817 72.355 14.976 73.627 A 26.185 26.185 0 0 1 8.3 74.5 A 14.282 14.282 0 0 1 5.776 74.289 Q 4.308 74.026 3.115 73.432 A 8.235 8.235 0 0 1 2.35 73 A 4.862 4.862 0 0 1 0.207 69.902 A 8.149 8.149 0 0 1 0 68 A 11.204 11.204 0 0 1 0.282 65.569 Q 0.523 64.483 0.971 63.325 A 18.597 18.597 0 0 1 1 63.25 Q 2 60.7 3.5 58.4 Q 4.842 56.343 6.184 54.925 A 16.595 16.595 0 0 1 6.5 54.6 Q 8.932 52.169 10.766 51.529 A 3.754 3.754 0 0 1 12 51.3 A 1.201 1.201 0 0 1 12.134 51.307 Q 12.4 51.337 12.4 51.5 A 0.601 0.601 0 0 1 12.318 51.773 Q 12.114 52.159 11.403 52.781 A 14.836 14.836 0 0 1 10.9 53.2 Q 7.4 56 5.1 59.65 A 18.9 18.9 0 0 0 3.815 62.029 Q 2.8 64.308 2.8 66.3 A 5.528 5.528 0 0 0 3.325 68.794 Q 4.81 71.771 10.501 71.607 A 21.908 21.908 0 0 0 10.7 71.6 Q 23.6 71.1 46.5 40.4 Q 47.627 38.927 48.453 38.205 A 5.609 5.609 0 0 1 48.7 38 Z M 302.5 44.5 L 305.5 54.1 A 50.528 50.528 0 0 0 306.75 52.72 Q 307.426 51.946 308.156 51.057 A 92.589 92.589 0 0 0 309.05 49.95 Q 311 47.5 313.4 44.2 L 322.3 32.2 A 401.778 401.778 0 0 1 328.053 24.891 Q 339.299 10.968 343.538 9.012 A 4.885 4.885 0 0 1 343.8 8.9 Q 345.6 8.2 347.4 8.2 Q 349 8.2 350.12 8.744 A 4.219 4.219 0 0 1 350.65 9.05 Q 351.9 9.9 351.9 11 A 1.714 1.714 0 0 1 350.931 12.58 Q 350.561 12.786 350.049 12.919 A 7.1 7.1 0 0 1 349 13.1 A 15.806 15.806 0 0 0 347.415 14.164 Q 344.097 16.638 337.3 23.2 Q 333.722 26.689 331.384 29.097 A 150.03 150.03 0 0 0 330.85 29.65 Q 328.4 32.2 327.5 33.5 Q 316.3 49.1 306.8 57.5 A 26.142 26.142 0 0 0 311.084 63.75 A 18.464 18.464 0 0 0 325.1 69.6 Q 329.7 69.6 334.45 67.65 Q 339.2 65.7 343.25 62.5 A 30.249 30.249 0 0 0 347.898 57.977 A 26.277 26.277 0 0 0 349.8 55.35 A 17.473 17.473 0 0 0 351.509 51.903 A 12.993 12.993 0 0 0 352.3 47.5 A 10.815 10.815 0 0 0 349.752 40.516 A 13.875 13.875 0 0 0 349.4 40.1 Q 346.5 36.8 342.3 35.4 L 340.8 35.2 Q 339.3 35 336.2 34.6 A 26.83 26.83 0 0 1 334.724 34.373 Q 332.553 33.971 331.844 33.352 A 0.865 0.865 0 0 1 331.5 32.7 A 1.445 1.445 0 0 1 331.815 31.813 Q 332.102 31.434 332.65 31.1 A 4.923 4.923 0 0 1 333.877 30.557 A 4.13 4.13 0 0 1 335 30.4 A 4.984 4.984 0 0 1 335.781 30.466 Q 336.16 30.526 336.581 30.642 A 10.075 10.075 0 0 1 337.1 30.8 Q 338.262 31.187 339.189 31.528 A 52.618 52.618 0 0 1 339.25 31.55 L 340.2 31.9 Q 340.994 31.999 341.985 32.049 A 36.021 36.021 0 0 0 342 32.05 Q 343 32.1 344 32.1 A 35.985 35.985 0 0 0 351.046 31.436 A 29.62 29.62 0 0 0 356 30 A 20.388 20.388 0 0 0 359.571 28.158 Q 361.681 26.771 363.06 24.967 A 12.193 12.193 0 0 0 363.6 24.2 Q 366 20.5 366 15.6 A 12.789 12.789 0 0 0 365.567 12.178 A 9.355 9.355 0 0 0 362.85 7.7 A 16.01 16.01 0 0 0 358.674 4.96 Q 356.862 4.124 354.691 3.585 A 26.91 26.91 0 0 0 354.55 3.55 A 44.391 44.391 0 0 0 347.246 2.435 A 53.785 53.785 0 0 0 343.4 2.3 A 72.254 72.254 0 0 0 321.811 5.491 A 68.485 68.485 0 0 0 321.15 5.7 Q 310.6 9.1 302.9 17 Q 298.408 21.644 297.336 25.129 A 7.049 7.049 0 0 0 297 27.2 A 9.313 9.313 0 0 0 297.287 29.565 A 7.233 7.233 0 0 0 298.5 32.1 A 11.704 11.704 0 0 0 299.142 32.835 A 13.59 13.59 0 0 0 299.4 33.1 Q 299.9 33.6 300.6 34.1 Q 301.052 34.371 300.197 34.397 A 6.481 6.481 0 0 1 300 34.4 Q 295.109 33.296 294.077 28.768 A 12.008 12.008 0 0 1 293.8 26.1 Q 293.8 19.941 299.377 14.42 A 30.532 30.532 0 0 1 300.8 13.1 Q 306.2 8.4 313.15 5.5 Q 320.1 2.6 327.85 1.3 Q 335.6 0 343.2 0 Q 348.6 0 353.6 0.8 A 37.479 37.479 0 0 1 359.047 2.076 A 30.448 30.448 0 0 1 362.6 3.45 Q 366.6 5.3 368.95 8.3 A 10.942 10.942 0 0 1 371.144 13.524 A 14.659 14.659 0 0 1 371.3 15.7 A 18.925 18.925 0 0 1 370.874 19.834 Q 370.209 22.805 368.508 24.992 A 11.84 11.84 0 0 1 368 25.6 Q 364.7 29.3 359.1 31.3 Q 352.5 33.6 344.9 33.7 A 16.279 16.279 0 0 1 349.067 34.421 A 13.575 13.575 0 0 1 352.25 35.9 Q 355.4 37.9 357.15 41.1 Q 358.9 44.3 358.9 48.1 Q 358.9 53.2 355.85 57.55 A 25.873 25.873 0 0 1 350.407 63.183 A 31.774 31.774 0 0 1 347.7 65.05 A 44.458 44.458 0 0 1 336.881 69.839 A 49.465 49.465 0 0 1 336.5 69.95 Q 330.4 71.7 324.3 71.7 Q 314.061 71.7 308.063 67.164 A 18.631 18.631 0 0 1 302.8 60.9 A 99.23 99.23 0 0 1 298.647 64.198 Q 291.555 69.5 288.1 69.5 A 3.426 3.426 0 0 1 285.362 68.236 A 4.98 4.98 0 0 1 284.85 67.5 A 8.705 8.705 0 0 1 283.718 63.617 A 10.482 10.482 0 0 1 283.7 63 A 19.504 19.504 0 0 1 284.395 58.034 Q 285.002 55.736 286.137 53.208 A 47.533 47.533 0 0 1 288.3 49 A 45.729 45.729 0 0 1 292.07 43.381 A 41.494 41.494 0 0 1 292.7 42.6 A 9.744 9.744 0 0 1 294.32 41.025 Q 295.689 39.99 297.226 39.764 A 5.99 5.99 0 0 1 298.1 39.7 Q 300.854 39.7 302.345 44.027 A 17.154 17.154 0 0 1 302.5 44.5 Z M 145.2 49.4 L 151.6 39 A 79.342 79.342 0 0 0 143.982 45.416 A 103.379 103.379 0 0 0 138.1 51.5 A 131.281 131.281 0 0 0 136.439 53.384 Q 135.597 54.357 134.674 55.455 A 229.439 229.439 0 0 0 134.05 56.2 A 176.764 176.764 0 0 0 131.842 58.907 Q 130.535 60.541 129.1 62.4 Q 125.5 67.1 124.8 67.1 Q 123.4 67.1 122.5 65.85 A 6.525 6.525 0 0 1 122.035 65.112 Q 121.825 64.716 121.716 64.349 A 2.637 2.637 0 0 1 121.6 63.6 Q 121.6 62.86 122.029 60.962 A 49.984 49.984 0 0 1 122.1 60.65 A 26.311 26.311 0 0 1 122.576 58.874 Q 122.855 57.968 123.179 57.186 A 15.603 15.603 0 0 1 123.3 56.9 Q 124 55.2 124.75 53.55 Q 125.5 51.9 126.2 50.3 L 120.2 56.6 L 119 57.8 A 7.429 7.429 0 0 1 118.582 58.19 Q 117.891 58.781 117.43 58.8 A 0.738 0.738 0 0 1 117.4 58.8 Q 116.9 58.8 116.9 58.1 A 0.749 0.749 0 0 1 116.914 57.964 Q 116.939 57.832 117.007 57.655 A 3.256 3.256 0 0 1 117.05 57.55 A 1.536 1.536 0 0 1 117.176 57.32 Q 117.326 57.09 117.592 56.811 A 6.493 6.493 0 0 1 117.7 56.7 Q 119.2 55.2 120.8 53.5 Q 122.4 51.8 124.1 49.6 Q 124.998 48.503 126.792 46.26 A 1292.286 1292.286 0 0 0 126.8 46.25 Q 128.6 44 130.75 41.4 Q 132.9 38.8 134.8 36.6 Q 135.212 36.024 135.691 35.753 A 1.936 1.936 0 0 1 135.9 35.65 A 8.589 8.589 0 0 1 136.144 35.553 Q 136.544 35.4 136.7 35.4 A 5.092 5.092 0 0 1 137.686 35.487 Q 139.4 35.827 139.4 37.5 A 2.554 2.554 0 0 1 139.224 38.419 A 3.136 3.136 0 0 1 139.1 38.7 Q 130.1 51.1 128.3 57.6 Q 137.861 48.039 144.331 42.384 A 134.781 134.781 0 0 1 146.95 40.15 A 68.093 68.093 0 0 1 149.793 37.906 Q 154.645 34.3 157 34.3 A 8.226 8.226 0 0 1 157.906 34.347 Q 158.843 34.451 159.43 34.788 A 2.412 2.412 0 0 1 159.45 34.8 A 1.589 1.589 0 0 1 160.148 35.677 Q 160.3 36.108 160.3 36.7 Q 160.3 37.026 160.258 37.266 A 1.641 1.641 0 0 1 160.2 37.5 Q 159.945 38.095 157.158 41.729 A 326.237 326.237 0 0 1 156.1 43.1 A 209.626 209.626 0 0 0 154.001 45.695 Q 153.018 46.932 152.164 48.051 A 125.271 125.271 0 0 0 152.05 48.2 Q 150.3 50.5 149.2 52.2 Q 147.559 54.754 146.665 57.017 A 19.434 19.434 0 0 0 146.5 57.45 A 19.015 19.015 0 0 0 145.997 59.012 Q 145.799 59.741 145.7 60.389 A 8.02 8.02 0 0 0 145.6 61.6 Q 145.6 62.3 145.8 63.3 Q 145.976 64.178 146.769 64.285 A 1.733 1.733 0 0 0 147 64.3 A 4.211 4.211 0 0 0 148.359 64.034 Q 150.35 63.343 153.511 60.854 A 50.87 50.87 0 0 0 154.2 60.3 Q 156.5 58.3 158.5 56.25 A 139.743 139.743 0 0 0 161.847 52.701 A 127.174 127.174 0 0 0 162.3 52.2 A 6.106 6.106 0 0 0 162.527 51.958 Q 162.904 51.537 163.539 50.728 A 60.175 60.175 0 0 0 163.6 50.65 A 21.143 21.143 0 0 1 163.889 50.289 Q 164.421 49.639 164.627 49.525 A 0.161 0.161 0 0 1 164.7 49.5 Q 165.1 49.5 165.1 50.3 Q 165.1 50.671 164.713 51.515 A 12.007 12.007 0 0 1 164.65 51.65 Q 164.332 52.323 163.988 52.769 A 3.378 3.378 0 0 1 163.7 53.1 Q 162.858 54.095 161.4 55.677 A 199.327 199.327 0 0 1 160.45 56.7 A 75.413 75.413 0 0 1 157.568 59.614 A 91.196 91.196 0 0 1 155.65 61.4 Q 153 63.8 150.5 65.5 A 13.765 13.765 0 0 1 149.069 66.36 Q 147.436 67.2 146.1 67.2 Q 143.4 67.2 142.3 65.65 Q 141.2 64.1 141.2 61.8 A 19.447 19.447 0 0 1 142.169 55.897 Q 142.919 53.538 144.249 51.063 A 37.027 37.027 0 0 1 145.2 49.4 Z M 238.8 34.4 L 244.6 34.4 Q 246.4 32.1 248.3 29.5 A 33.603 33.603 0 0 1 249.506 28.06 Q 251.375 25.96 252.6 25.5 L 252.9 25.5 A 2.015 2.015 0 0 1 253.342 25.556 Q 253.966 25.697 254.9 26.2 A 6.642 6.642 0 0 1 255.524 26.594 Q 256.145 27.041 256.371 27.488 A 1.126 1.126 0 0 1 256.5 28 A 1.799 1.799 0 0 1 256.302 28.697 Q 255.525 30.397 251.7 34.7 Q 252.389 34.777 253.547 34.795 A 48.718 48.718 0 0 0 254.3 34.8 L 258.5 34.8 L 261.95 34.8 Q 264.2 34.8 266.65 34.75 Q 269.1 34.7 270.9 34.65 A 983.31 983.31 0 0 1 271.325 34.638 Q 272.635 34.603 272.873 34.6 A 2.919 2.919 0 0 1 272.9 34.6 A 0.807 0.807 0 0 1 273.017 34.649 Q 273.076 34.679 273.116 34.716 A 0.243 0.243 0 0 1 273.2 34.9 Q 273.2 35.8 261.4 37.3 Q 254.7 38.2 251.15 38.7 A 376.679 376.679 0 0 0 250.314 38.819 Q 247.718 39.19 247.338 39.289 A 0.598 0.598 0 0 0 247.3 39.3 A 10.623 10.623 0 0 0 246.465 40.11 Q 245.602 41.033 244.557 42.471 A 46.358 46.358 0 0 0 243.9 43.4 A 71.554 71.554 0 0 0 241.65 46.884 A 90.393 90.393 0 0 0 239.9 49.9 A 74.855 74.855 0 0 0 237.856 53.839 A 59.095 59.095 0 0 0 236.55 56.75 Q 235.2 60 235.2 61.8 A 3.478 3.478 0 0 0 235.539 63.345 A 3.511 3.511 0 0 0 236.4 64.45 Q 237.6 65.5 240.3 65.5 A 10.187 10.187 0 0 0 241.813 65.378 Q 242.583 65.262 243.45 65.036 A 22.151 22.151 0 0 0 244.6 64.7 A 40.275 40.275 0 0 0 249.209 62.916 A 37.215 37.215 0 0 0 249.35 62.85 Q 251.516 61.839 252.524 61.246 A 11.254 11.254 0 0 0 252.6 61.2 Q 254.778 59.86 257.341 57.784 A 70.614 70.614 0 0 0 258.35 56.95 A 62.61 62.61 0 0 0 262.658 52.952 A 74.052 74.052 0 0 0 264.6 50.9 A 17.416 17.416 0 0 1 265.094 50.424 Q 266.094 49.5 266.5 49.5 A 0.315 0.315 0 0 1 266.639 49.528 Q 266.772 49.593 266.795 49.803 A 0.875 0.875 0 0 1 266.8 49.9 Q 266.8 50.632 265.544 52.202 A 19.488 19.488 0 0 1 265.3 52.5 Q 262.9 55.4 259.95 58.05 A 44.158 44.158 0 0 1 253.903 62.589 A 48.853 48.853 0 0 1 253.4 62.9 A 38.98 38.98 0 0 1 249.511 64.994 A 28.535 28.535 0 0 1 245.55 66.5 A 29.061 29.061 0 0 1 242.047 67.308 A 21.456 21.456 0 0 1 238.6 67.6 A 10.681 10.681 0 0 1 236.56 67.417 Q 235.382 67.188 234.454 66.671 A 5.792 5.792 0 0 1 233.55 66.05 A 4.416 4.416 0 0 1 232.335 64.346 Q 231.7 62.844 231.7 60.5 A 9.996 9.996 0 0 1 231.864 58.782 Q 232.159 57.102 232.984 54.949 A 33.564 33.564 0 0 1 233.1 54.65 Q 234.5 51.1 236.6 47 Q 238.7 42.9 240.8 38.9 Q 239.717 39.15 238.843 39.192 A 7.187 7.187 0 0 1 238.5 39.2 Q 235.5 39.2 235.5 36.9 A 2.267 2.267 0 0 1 235.625 36.131 A 1.916 1.916 0 0 1 236.35 35.2 Q 236.95 34.777 237.476 34.602 A 2.448 2.448 0 0 1 237.9 34.5 L 238.15 34.5 Q 238.389 34.5 238.764 34.409 A 5.454 5.454 0 0 0 238.8 34.4 Z M 419.6 38.3 L 412.2 47.9 A 142.278 142.278 0 0 1 410.308 50.32 Q 406.83 54.66 405.484 55.433 A 1.037 1.037 0 0 1 405 55.6 A 0.917 0.917 0 0 1 404.818 55.584 Q 404.536 55.526 404.504 55.269 A 0.56 0.56 0 0 1 404.5 55.2 A 1.351 1.351 0 0 1 404.549 54.858 Q 404.657 54.45 405 53.9 A 3.656 3.656 0 0 1 405.217 53.531 Q 405.473 53.141 405.909 52.632 A 17.689 17.689 0 0 1 406.2 52.3 A 158.776 158.776 0 0 0 411.563 45.756 A 140.52 140.52 0 0 0 413.2 43.6 A 66.2 66.2 0 0 0 416.452 38.826 A 52.715 52.715 0 0 0 418.5 35.2 A 36.758 36.758 0 0 1 419.405 32.243 Q 421.457 26.5 424.3 26.5 A 3.651 3.651 0 0 1 425.182 26.597 Q 426.6 26.951 426.6 28.6 A 4.009 4.009 0 0 1 426.368 29.869 Q 425.839 31.445 424.1 33.6 Q 421.93 36.404 421.722 36.754 A 0.146 0.146 0 0 0 421.7 36.8 Q 421.7 38.9 424.8 38.9 A 5.967 5.967 0 0 0 426.452 38.651 Q 427.146 38.451 427.89 38.091 A 12.588 12.588 0 0 0 428.8 37.6 L 431.4 36 A 0.746 0.746 0 0 1 431.545 35.947 Q 431.725 35.9 432 35.9 A 2.649 2.649 0 0 1 433.812 36.612 A 3.705 3.705 0 0 1 434.1 36.9 Q 435 37.9 434.7 38.7 L 427.8 47.4 Q 422.785 53.827 421.7 58.287 A 9.81 9.81 0 0 0 421.4 60.6 A 6.654 6.654 0 0 0 421.611 62.354 Q 422.16 64.36 424.142 64.901 A 6.309 6.309 0 0 0 425.8 65.1 Q 428.519 65.1 431.607 63.622 A 20.876 20.876 0 0 0 432.25 63.3 A 38.893 38.893 0 0 0 437.93 59.658 A 43.86 43.86 0 0 0 438.95 58.85 Q 441.985 56.376 444.104 54.033 A 32.972 32.972 0 0 0 444.4 53.7 L 446.8 50.9 L 447.3 50.4 A 1.997 1.997 0 0 1 447.435 50.276 Q 447.574 50.161 447.688 50.121 A 0.341 0.341 0 0 1 447.8 50.1 A 1.008 1.008 0 0 1 448.077 50.135 Q 448.388 50.224 448.47 50.541 A 1.031 1.031 0 0 1 448.5 50.8 A 0.672 0.672 0 0 1 448.488 50.917 Q 448.455 51.103 448.328 51.429 A 7.262 7.262 0 0 1 448.3 51.5 A 3.007 3.007 0 0 1 448.098 51.906 Q 447.905 52.235 447.6 52.6 L 444.4 56.2 Q 442.109 58.79 438.776 61.429 A 59.807 59.807 0 0 1 438.75 61.45 Q 435.4 64.1 431.85 65.8 A 20.484 20.484 0 0 1 429.279 66.836 Q 427.213 67.5 425.4 67.5 Q 422.998 67.5 421.438 66.798 A 4.667 4.667 0 0 1 419.5 65.25 A 7.997 7.997 0 0 1 418.332 62.73 Q 417.9 61.174 417.9 59.2 Q 417.9 55 420.5 49.2 A 40.873 40.873 0 0 1 421.657 46.755 A 32.475 32.475 0 0 1 422.6 45.05 A 39.429 39.429 0 0 1 424.528 42.106 A 35.362 35.362 0 0 1 424.9 41.6 A 3.947 3.947 0 0 1 424.614 41.661 Q 424.388 41.7 424.2 41.7 L 423.6 41.7 Q 421.2 41.7 419.6 38.3 Z M 101 56.3 L 94.8 62.3 A 35.109 35.109 0 0 1 93.104 63.894 Q 91.297 65.475 89.75 66.3 A 15.77 15.77 0 0 1 88.552 66.88 Q 87.107 67.5 86.1 67.5 A 7.329 7.329 0 0 1 83.175 66.869 A 10.353 10.353 0 0 1 81.3 65.8 A 8.147 8.147 0 0 1 79.951 64.62 Q 79.107 63.684 78.774 62.602 A 4.858 4.858 0 0 1 78.6 61.8 A 10.374 10.374 0 0 1 78.515 60.463 Q 78.515 54.259 85.642 46.289 A 63.849 63.849 0 0 1 88.3 43.5 Q 97.343 34.458 104.857 33.129 A 14.589 14.589 0 0 1 107.4 32.9 Q 109.7 32.9 111 34 Q 111.7 34.7 112.05 35.9 A 12.568 12.568 0 0 0 112.166 36.277 Q 112.388 36.956 112.539 37.075 A 0.101 0.101 0 0 0 112.6 37.1 Q 113 37.1 113.3 36.95 A 1.397 1.397 0 0 1 113.709 36.822 A 1.859 1.859 0 0 1 114 36.8 A 2.863 2.863 0 0 1 116.042 37.643 A 3.757 3.757 0 0 1 116.1 37.7 A 6.084 6.084 0 0 1 116.522 38.164 Q 116.928 38.665 117.055 39.095 A 1.451 1.451 0 0 1 117.1 39.3 Q 117.2 39.5 110.7 49.2 Q 104.2 58.7 104.8 62.1 A 5.037 5.037 0 0 0 105.077 62.996 Q 105.277 63.468 105.559 63.781 A 1.853 1.853 0 0 0 107 64.4 A 6.077 6.077 0 0 0 109.798 63.517 Q 115.143 60.603 125.297 48.073 A 231.99 231.99 0 0 0 126 47.2 Q 126.272 46.838 126.543 46.804 A 0.453 0.453 0 0 1 126.6 46.8 Q 127.1 46.8 127.1 47.5 Q 127.1 48.3 126.2 49.5 Q 113.5 66.6 106.7 66.6 A 4.802 4.802 0 0 1 105.003 66.301 A 4.406 4.406 0 0 1 105 66.3 A 7.425 7.425 0 0 1 102.587 64.84 Q 101.066 63.425 100.709 61.164 A 9.402 9.402 0 0 1 100.6 59.7 Q 100.6 58 101 56.3 Z M 385.4 56.3 L 379.2 62.3 A 35.109 35.109 0 0 1 377.504 63.894 Q 375.697 65.475 374.15 66.3 A 15.77 15.77 0 0 1 372.952 66.88 Q 371.507 67.5 370.5 67.5 A 7.329 7.329 0 0 1 367.575 66.869 A 10.353 10.353 0 0 1 365.7 65.8 A 8.147 8.147 0 0 1 364.351 64.62 Q 363.507 63.684 363.174 62.602 A 4.858 4.858 0 0 1 363 61.8 A 10.374 10.374 0 0 1 362.915 60.463 Q 362.915 54.259 370.042 46.289 A 63.849 63.849 0 0 1 372.7 43.5 Q 381.743 34.458 389.257 33.129 A 14.589 14.589 0 0 1 391.8 32.9 Q 394.1 32.9 395.4 34 Q 396.1 34.7 396.45 35.9 A 12.568 12.568 0 0 0 396.566 36.277 Q 396.788 36.956 396.939 37.075 A 0.101 0.101 0 0 0 397 37.1 Q 397.4 37.1 397.7 36.95 A 1.397 1.397 0 0 1 398.109 36.822 A 1.859 1.859 0 0 1 398.4 36.8 A 2.863 2.863 0 0 1 400.442 37.643 A 3.757 3.757 0 0 1 400.5 37.7 A 6.084 6.084 0 0 1 400.922 38.164 Q 401.328 38.665 401.455 39.095 A 1.451 1.451 0 0 1 401.5 39.3 Q 401.6 39.5 395.1 49.2 Q 388.6 58.7 389.2 62.1 A 5.037 5.037 0 0 0 389.477 62.996 Q 389.677 63.468 389.959 63.781 A 1.853 1.853 0 0 0 391.4 64.4 A 6.077 6.077 0 0 0 394.198 63.517 Q 399.543 60.603 409.697 48.073 A 231.99 231.99 0 0 0 410.4 47.2 Q 410.672 46.838 410.943 46.804 A 0.453 0.453 0 0 1 411 46.8 Q 411.5 46.8 411.5 47.5 Q 411.5 48.3 410.6 49.5 Q 397.9 66.6 391.1 66.6 A 4.802 4.802 0 0 1 389.403 66.301 A 4.406 4.406 0 0 1 389.4 66.3 A 7.425 7.425 0 0 1 386.987 64.84 Q 385.466 63.425 385.109 61.164 A 9.402 9.402 0 0 1 385 59.7 Q 385 58 385.4 56.3 Z M 501.9 56.3 L 495.7 62.3 A 35.109 35.109 0 0 1 494.004 63.894 Q 492.197 65.475 490.65 66.3 A 15.77 15.77 0 0 1 489.452 66.88 Q 488.007 67.5 487 67.5 A 7.329 7.329 0 0 1 484.075 66.869 A 10.353 10.353 0 0 1 482.2 65.8 A 8.147 8.147 0 0 1 480.851 64.62 Q 480.007 63.684 479.674 62.602 A 4.858 4.858 0 0 1 479.5 61.8 A 10.374 10.374 0 0 1 479.415 60.463 Q 479.415 54.259 486.542 46.289 A 63.849 63.849 0 0 1 489.2 43.5 Q 498.243 34.458 505.757 33.129 A 14.589 14.589 0 0 1 508.3 32.9 Q 510.6 32.9 511.9 34 Q 512.6 34.7 512.95 35.9 A 12.568 12.568 0 0 0 513.066 36.277 Q 513.288 36.956 513.439 37.075 A 0.101 0.101 0 0 0 513.5 37.1 Q 513.9 37.1 514.2 36.95 A 1.397 1.397 0 0 1 514.609 36.822 A 1.859 1.859 0 0 1 514.9 36.8 A 2.863 2.863 0 0 1 516.942 37.643 A 3.757 3.757 0 0 1 517 37.7 A 6.084 6.084 0 0 1 517.422 38.164 Q 517.828 38.665 517.955 39.095 A 1.451 1.451 0 0 1 518 39.3 Q 518.1 39.5 511.6 49.2 Q 505.1 58.7 505.7 62.1 A 5.037 5.037 0 0 0 505.977 62.996 Q 506.177 63.468 506.459 63.781 A 1.853 1.853 0 0 0 507.9 64.4 A 6.077 6.077 0 0 0 510.698 63.517 Q 516.043 60.603 526.197 48.073 A 231.99 231.99 0 0 0 526.9 47.2 Q 527.172 46.838 527.443 46.804 A 0.453 0.453 0 0 1 527.5 46.8 Q 528 46.8 528 47.5 Q 528 48.3 527.1 49.5 Q 514.4 66.6 507.6 66.6 A 4.802 4.802 0 0 1 505.903 66.301 A 4.406 4.406 0 0 1 505.9 66.3 A 7.425 7.425 0 0 1 503.487 64.84 Q 501.966 63.425 501.609 61.164 A 9.402 9.402 0 0 1 501.5 59.7 Q 501.5 58 501.9 56.3 Z M 169.4 43 L 172.7 39.5 A 8.87 8.87 0 0 1 173.95 38.498 Q 175.325 37.6 176.7 37.6 A 4.867 4.867 0 0 1 177.686 37.691 Q 179.179 38.001 179.372 39.371 A 3.083 3.083 0 0 1 179.4 39.8 A 0.67 0.67 0 0 1 179.346 39.991 Q 179.019 40.832 176.736 44.913 A 426.884 426.884 0 0 1 175.9 46.4 L 171.5 54 A 427.589 427.589 0 0 1 167.869 60.794 Q 164.43 67.08 161.879 71.106 A 66.788 66.788 0 0 1 159.6 74.5 Q 150.5 87.5 142.5 87.5 Q 139.5 87.5 137 85.6 Q 134.548 83.714 134.409 81.828 A 3.084 3.084 0 0 1 134.4 81.6 A 6.058 6.058 0 0 1 134.429 80.979 Q 134.494 80.355 134.703 80.036 A 0.68 0.68 0 0 1 135.3 79.7 A 0.131 0.131 0 0 1 135.353 79.739 Q 135.596 79.973 136.845 81.603 A 203.828 203.828 0 0 1 137.3 82.2 Q 138.892 84.269 140.864 84.692 A 4.934 4.934 0 0 0 141.9 84.8 Q 149.9 84.8 160.1 66.7 A 217.334 217.334 0 0 0 162.798 61.681 Q 164.208 58.967 165.35 56.55 Q 167.08 52.889 168.195 49.843 A 52.528 52.528 0 0 0 168.7 48.4 Q 168.011 49.166 166.853 50.312 A 105.713 105.713 0 0 1 166.1 51.05 Q 164.4 52.7 162.85 53.95 A 14.069 14.069 0 0 1 162.213 54.437 Q 161.147 55.2 160.6 55.2 A 0.432 0.432 0 0 1 160.482 55.185 Q 160.348 55.147 160.313 55.011 A 0.442 0.442 0 0 1 160.3 54.9 Q 160.3 54 161.6 52.8 A 14.896 14.896 0 0 0 162.823 51.63 Q 164.084 50.293 165.595 48.208 A 60.082 60.082 0 0 0 166.1 47.5 A 444.165 444.165 0 0 1 166.786 46.533 Q 168.941 43.504 169.362 43.04 A 1.183 1.183 0 0 1 169.4 43 Z M 186.1 68.3 Q 182.9 68.3 180.3 66.25 A 6.51 6.51 0 0 1 177.731 61.528 A 8.351 8.351 0 0 1 177.7 60.8 A 14.437 14.437 0 0 1 178.824 55.439 Q 180.827 50.43 186.4 44.6 Q 193.797 36.954 199.881 35.663 A 11.632 11.632 0 0 1 202.3 35.4 A 6.912 6.912 0 0 1 203.968 35.591 A 4.971 4.971 0 0 1 206.05 36.65 A 4.364 4.364 0 0 1 207.016 37.803 A 3.787 3.787 0 0 1 207.5 39.7 A 8.12 8.12 0 0 1 206.101 44.109 Q 204.346 46.855 200.389 49.552 A 40.303 40.303 0 0 1 198.6 50.7 Q 191.341 55.111 186.193 55.469 A 12.874 12.874 0 0 1 185.3 55.5 A 5.435 5.435 0 0 1 184.639 55.462 Q 184.288 55.419 183.986 55.327 A 3.23 3.23 0 0 1 183.9 55.3 Q 182.4 58 182.4 61 Q 182.4 65.423 185.946 66.084 A 7.403 7.403 0 0 0 187.3 66.2 A 10.216 10.216 0 0 0 190.662 65.562 Q 193.624 64.523 197.317 61.794 A 55.205 55.205 0 0 0 200.2 59.5 Q 206.3 54.6 210.6 49.1 A 6.294 6.294 0 0 1 210.985 48.633 Q 211.653 47.9 212.2 47.9 A 0.864 0.864 0 0 1 212.438 47.93 Q 212.8 48.034 212.8 48.5 A 1.31 1.31 0 0 1 212.737 48.877 Q 212.628 49.235 212.333 49.709 A 8.278 8.278 0 0 1 212 50.2 Q 209.2 53.9 206 57 Q 202.8 60.1 199.1 62.7 A 46.127 46.127 0 0 1 195.069 65.344 Q 190.828 67.793 187.458 68.213 A 10.98 10.98 0 0 1 186.1 68.3 Z M 211.8 68.3 Q 208.6 68.3 206 66.25 A 6.51 6.51 0 0 1 203.431 61.528 A 8.351 8.351 0 0 1 203.4 60.8 A 14.437 14.437 0 0 1 204.524 55.439 Q 206.527 50.43 212.1 44.6 Q 219.497 36.954 225.581 35.663 A 11.632 11.632 0 0 1 228 35.4 A 6.912 6.912 0 0 1 229.668 35.591 A 4.971 4.971 0 0 1 231.75 36.65 A 4.364 4.364 0 0 1 232.716 37.803 A 3.787 3.787 0 0 1 233.2 39.7 A 8.12 8.12 0 0 1 231.801 44.109 Q 230.046 46.855 226.089 49.552 A 40.303 40.303 0 0 1 224.3 50.7 Q 217.041 55.111 211.893 55.469 A 12.874 12.874 0 0 1 211 55.5 A 5.435 5.435 0 0 1 210.339 55.462 Q 209.988 55.419 209.686 55.327 A 3.23 3.23 0 0 1 209.6 55.3 Q 208.1 58 208.1 61 Q 208.1 65.423 211.646 66.084 A 7.403 7.403 0 0 0 213 66.2 A 10.216 10.216 0 0 0 216.362 65.562 Q 219.324 64.523 223.017 61.794 A 55.205 55.205 0 0 0 225.9 59.5 Q 232 54.6 236.3 49.1 A 6.294 6.294 0 0 1 236.685 48.633 Q 237.353 47.9 237.9 47.9 A 0.864 0.864 0 0 1 238.138 47.93 Q 238.5 48.034 238.5 48.5 A 1.31 1.31 0 0 1 238.437 48.877 Q 238.328 49.235 238.033 49.709 A 8.278 8.278 0 0 1 237.7 50.2 Q 234.9 53.9 231.7 57 Q 228.5 60.1 224.8 62.7 A 46.127 46.127 0 0 1 220.769 65.344 Q 216.528 67.793 213.158 68.213 A 10.98 10.98 0 0 1 211.8 68.3 Z M 454 43.6 L 466.6 31.8 Q 469.2 29.3 470.75 28 A 14.151 14.151 0 0 1 471.386 27.495 Q 472.324 26.796 472.861 26.712 A 0.901 0.901 0 0 1 473 26.7 A 6.271 6.271 0 0 1 474.158 26.797 Q 476.084 27.161 476.194 28.887 A 3.365 3.365 0 0 1 476.2 29.1 A 2.787 2.787 0 0 1 476.032 30.014 Q 475.763 30.789 475.061 31.698 A 10.655 10.655 0 0 1 474.9 31.9 Q 473.9 33.1 473.45 33.75 A 38.757 38.757 0 0 1 473.294 33.975 Q 473.024 34.359 472.926 34.472 A 0.544 0.544 0 0 1 472.9 34.5 Q 471.534 36.853 470.341 42.029 A 88.768 88.768 0 0 0 469.6 45.6 Q 468.555 51.206 467.781 54.916 A 225.715 225.715 0 0 1 467.7 55.3 Q 466.93 58.958 466.438 60.67 A 21.996 21.996 0 0 1 466.4 60.8 A 15.621 15.621 0 0 0 472.386 59.417 A 19.918 19.918 0 0 0 474.7 58.2 Q 478.8 55.7 483.5 50 L 484.1 49.4 Q 484.368 49.133 484.635 49.044 A 0.838 0.838 0 0 1 484.9 49 A 1.052 1.052 0 0 1 485.123 49.022 Q 485.445 49.092 485.492 49.39 A 0.702 0.702 0 0 1 485.5 49.5 A 1.789 1.789 0 0 1 485.36 50.184 A 2.346 2.346 0 0 1 485.2 50.5 Q 484.9 51 484.6 51.4 A 70.341 70.341 0 0 1 482.148 54.184 Q 480.403 56.055 478.8 57.45 A 23.954 23.954 0 0 1 474.673 60.362 A 21.325 21.325 0 0 1 473.1 61.15 Q 470.324 62.399 466.607 63.263 A 50.829 50.829 0 0 1 466 63.4 L 462.8 65.5 A 7.979 7.979 0 0 1 460.98 66.43 A 10.197 10.197 0 0 1 459.7 66.8 A 17.075 17.075 0 0 1 456.643 67.186 A 19.455 19.455 0 0 1 455.9 67.2 A 11.28 11.28 0 0 1 453.202 66.897 A 7.192 7.192 0 0 1 448.95 64.1 A 17.416 17.416 0 0 1 447.382 61.438 Q 446.703 60.031 446.13 58.329 A 38.955 38.955 0 0 1 445.3 55.5 Q 443.842 56.958 443.106 57.235 A 0.884 0.884 0 0 1 442.8 57.3 Q 442.323 57.3 442.301 56.571 A 2.391 2.391 0 0 1 442.3 56.5 A 1.42 1.42 0 0 1 442.57 55.673 A 2.025 2.025 0 0 1 442.8 55.4 L 445.35 52.3 A 40.282 40.282 0 0 1 446.847 50.594 Q 448.61 48.684 451.305 46.117 A 202.427 202.427 0 0 1 454 43.6 Z M 101 52.6 L 111.6 38 A 2.628 2.628 0 0 0 109.715 36.662 A 3.911 3.911 0 0 0 109 36.6 A 10.889 10.889 0 0 0 105.114 37.419 Q 99.907 39.428 92.538 46.364 A 98.789 98.789 0 0 0 92.5 46.4 A 62.257 62.257 0 0 0 88.681 50.233 Q 82.699 56.83 82.699 61.669 A 7.369 7.369 0 0 0 82.8 62.9 A 4.851 4.851 0 0 0 83.099 63.864 Q 83.718 65.272 85.143 65.3 A 2.96 2.96 0 0 0 85.2 65.3 A 7.889 7.889 0 0 0 88.686 64.351 Q 93.243 62.073 99.607 54.333 A 105.469 105.469 0 0 0 101 52.6 Z M 385.4 52.6 L 396 38 A 2.628 2.628 0 0 0 394.115 36.662 A 3.911 3.911 0 0 0 393.4 36.6 A 10.889 10.889 0 0 0 389.514 37.419 Q 384.307 39.428 376.938 46.364 A 98.789 98.789 0 0 0 376.9 46.4 A 62.257 62.257 0 0 0 373.081 50.233 Q 367.099 56.83 367.099 61.669 A 7.369 7.369 0 0 0 367.2 62.9 A 4.851 4.851 0 0 0 367.499 63.864 Q 368.118 65.272 369.543 65.3 A 2.96 2.96 0 0 0 369.6 65.3 A 7.889 7.889 0 0 0 373.086 64.351 Q 377.643 62.073 384.007 54.333 A 105.469 105.469 0 0 0 385.4 52.6 Z M 501.9 52.6 L 512.5 38 A 2.628 2.628 0 0 0 510.615 36.662 A 3.911 3.911 0 0 0 509.9 36.6 A 10.889 10.889 0 0 0 506.014 37.419 Q 500.807 39.428 493.438 46.364 A 98.789 98.789 0 0 0 493.4 46.4 A 62.257 62.257 0 0 0 489.581 50.233 Q 483.599 56.83 483.599 61.669 A 7.369 7.369 0 0 0 483.7 62.9 A 4.851 4.851 0 0 0 483.999 63.864 Q 484.618 65.272 486.043 65.3 A 2.96 2.96 0 0 0 486.1 65.3 A 7.889 7.889 0 0 0 489.586 64.351 Q 494.143 62.073 500.507 54.333 A 105.469 105.469 0 0 0 501.9 52.6 Z M 467.2 37.5 L 467.6 34.1 A 44.292 44.292 0 0 0 466.046 35.309 Q 464.207 36.8 461.8 39 Q 458.3 42.2 454.9 45.7 A 87.2 87.2 0 0 0 453.394 47.287 Q 451.356 49.494 450.572 50.734 A 7.338 7.338 0 0 0 450.5 50.85 Q 449.505 52.493 449.401 53.293 A 1.674 1.674 0 0 0 449.4 53.3 A 11.531 11.531 0 0 0 449.344 54.258 Q 449.32 55.716 449.7 56.938 A 6.764 6.764 0 0 0 451.35 59.7 A 7.721 7.721 0 0 0 456.942 62.099 A 9.53 9.53 0 0 0 457.1 62.1 A 7.921 7.921 0 0 0 458.775 61.932 Q 459.986 61.67 460.9 61 A 2.384 2.384 0 0 0 461.515 60.493 Q 462.296 59.627 463.05 57.65 Q 463.772 55.76 464.47 53.231 A 83.354 83.354 0 0 0 465.1 50.8 A 76.835 76.835 0 0 0 466.293 44.369 A 70.276 70.276 0 0 0 466.35 43.95 Q 466.8 40.6 467.2 37.5 Z M 301.7 58.1 L 301.4 57.7 A 129.8 129.8 0 0 0 300.073 53.521 Q 297.376 45.549 295.518 44.545 A 1.088 1.088 0 0 0 295 44.4 Q 294.9 44.4 294.5 44.6 Q 288.694 52.996 287.443 58.806 A 14.267 14.267 0 0 0 287.1 61.8 A 9.045 9.045 0 0 0 287.178 62.935 Q 287.307 63.95 287.65 65.2 Q 288.2 67.2 289.4 67.2 Q 292.004 67.2 298.513 61.176 A 115.051 115.051 0 0 0 301.7 58.1 Z M 186.7 53.3 A 10.287 10.287 0 0 0 189.3 52.929 Q 192.407 52.113 196.6 49.5 A 41.33 41.33 0 0 0 200.054 46.789 A 46.057 46.057 0 0 0 200.55 46.35 Q 202.5 44.6 203.75 42.8 A 9.648 9.648 0 0 0 204.396 41.74 Q 204.679 41.193 204.83 40.689 A 3.81 3.81 0 0 0 205 39.6 A 1.082 1.082 0 0 0 204.372 38.567 Q 203.905 38.327 203.089 38.303 A 6.328 6.328 0 0 0 202.9 38.3 A 5.821 5.821 0 0 0 201.023 38.656 Q 198.382 39.566 194.5 42.8 Q 191.9 45 189.5 47.6 Q 187.1 50.2 185.4 53.1 Q 186 53.3 186.7 53.3 Z M 212.4 53.3 A 10.287 10.287 0 0 0 215 52.929 Q 218.107 52.113 222.3 49.5 A 41.33 41.33 0 0 0 225.754 46.789 A 46.057 46.057 0 0 0 226.25 46.35 Q 228.2 44.6 229.45 42.8 A 9.648 9.648 0 0 0 230.096 41.74 Q 230.379 41.193 230.53 40.689 A 3.81 3.81 0 0 0 230.7 39.6 A 1.082 1.082 0 0 0 230.072 38.567 Q 229.605 38.327 228.789 38.303 A 6.328 6.328 0 0 0 228.6 38.3 A 5.821 5.821 0 0 0 226.723 38.656 Q 224.082 39.566 220.2 42.8 Q 217.6 45 215.2 47.6 Q 212.8 50.2 211.1 53.1 Q 211.7 53.3 212.4 53.3 Z M 181.7 32.4 Q 180 32.4 178.75 31.35 A 3.976 3.976 0 0 1 178.015 30.553 A 2.871 2.871 0 0 1 177.5 28.9 Q 177.5 26.355 180.428 26.044 A 8.269 8.269 0 0 1 181.3 26 A 4.245 4.245 0 0 1 183.007 26.371 A 6.026 6.026 0 0 1 184.1 27 A 4.102 4.102 0 0 1 184.839 27.664 A 2.602 2.602 0 0 1 185.5 29.4 A 2.162 2.162 0 0 1 184.993 30.783 Q 184.688 31.163 184.2 31.5 Q 183.161 32.22 182.185 32.364 A 3.312 3.312 0 0 1 181.7 32.4 Z" vector-effect="non-scaling-stroke"/></g></svg>