 <svg  version="1.0" xmlns="http://www.w3.org/2000/svg"  width="696.000000pt" height="696.000000pt" viewBox="0 0 696.000000 696.000000"  preserveAspectRatio="xMidYMid meet">  <g transform="translate(0.000000,696.000000) scale(0.100000,-0.100000)" fill="#ffffff" stroke="none"> <path d="M1580 6490 c0 -7 8 -19 18 -27 15 -13 14 -14 -13 -8 -84 17 -121 17 -134 1 -7 -9 -25 -16 -40 -16 -35 0 -53 -13 -45 -33 7 -18 -11 -24 -21 -7 -13 21 -42 8 -93 -43 -90 -89 -98 -101 -131 -165 l-32 -63 1 -802 c2 -2256 4 -2506 22 -2604 10 -50 23 -104 29 -120 6 -15 15 -50 20 -77 5 -27 16 -58 25 -68 12 -12 15 -28 11 -52 -5 -30 -3 -35 16 -38 16 -2 22 -10 22 -28 0 -14 11 -36 23 -48 17 -17 22 -31 18 -47 -3 -13 -2 -25 2 -27 5 -2 32 -43 61 -93 29 -49 67 -105 84 -123 24 -25 32 -42 32 -70 0 -31 4 -38 23 -40 15 -2 27 -14 33 -32 6 -16 17 -31 25 -34 8 -3 14 -14 14 -25 0 -11 35 -55 81 -101 65 -66 78 -84 68 -96 -9 -11 -7 -14 12 -14 36 0 57 -16 41 -32 -21 -21 -14 -38 18 -38 17 0 30 -3 30 -7 0 -5 20 -28 45 -53 24 -25 44 -53 45 -62 0 -14 6 -16 31 -11 33 6 33 4 12 -54 -7 -18 24 -28 42 -13 21 18 31 11 73 -50 23 -33 47 -56 60 -58 13 -2 22 -11 22 -21 0 -22 31 -51 53 -51 9 0 17 -7 17 -15 0 -9 8 -18 18 -22 9 -3 38 -28 63 -55 31 -33 53 -48 71 -48 20 0 27 -7 35 -32 8 -29 13 -33 41 -30 28 2 31 -1 29 -20 -2 -19 4 -24 30 -26 18 -2 38 -11 46 -22 7 -10 28 -25 47 -33 19 -8 50 -29 68 -46 18 -17 45 -34 60 -38 23 -5 83 -44 130 -83 7 -6 22 -8 33 -5 18 6 20 4 15 -13 -6 -17 -1 -21 25 -27 18 -4 45 -21 61 -37 17 -18 35 -27 44 -24 13 5 138 -61 215 -114 55 -38 129 -71 146 -66 11 3 36 -3 58 -14 46 -23 78 -26 94 -6 6 7 34 16 62 20 42 6 49 9 39 21 -9 11 -2 18 37 34 26 11 55 25 63 31 8 6 26 16 40 22 42 21 105 62 113 75 4 7 20 13 35 13 19 0 32 8 44 30 9 17 24 30 32 30 26 0 115 50 162 91 26 22 57 47 70 56 13 8 26 25 30 36 3 12 12 28 18 36 8 10 11 352 12 1260 1 685 1 1359 2 1496 0 138 0 264 -1 280 -2 26 1 30 21 28 27 -3 30 23 2 30 -25 6 -34 44 -26 111 7 50 9 54 37 58 23 4 45 -6 101 -44 39 -26 77 -48 85 -48 7 0 18 -11 23 -25 7 -19 17 -25 41 -25 28 0 31 -2 25 -25 -6 -23 -3 -25 25 -25 22 0 41 -10 67 -36 20 -20 49 -41 65 -46 19 -7 30 -19 34 -39 5 -25 9 -27 33 -22 24 4 31 1 44 -25 8 -16 22 -32 31 -35 8 -4 15 -18 15 -35 0 -15 5 -33 12 -40 7 -7 10 -42 8 -99 -1 -48 -2 -101 -2 -118 2 -164 0 -1641 -2 -1675 -6 -86 23 -180 54 -180 17 0 20 179 21 1149 l0 1024 -28 23 c-15 13 -34 23 -41 24 -8 0 -37 20 -65 45 -29 25 -55 45 -60 45 -7 0 -133 94 -191 144 -16 13 -52 37 -80 52 -28 15 -77 48 -108 73 -108 88 -187 143 -198 139 -9 -3 -11 -454 -11 -1700 1 -934 4 -1703 7 -1711 8 -21 -33 -65 -66 -72 -17 -4 -35 -15 -40 -26 -6 -10 -19 -19 -30 -19 -10 0 -22 -5 -26 -11 -3 -6 -38 -32 -78 -57 -96 -63 -103 -68 -161 -97 -27 -14 -57 -29 -65 -34 -61 -38 -120 -70 -141 -76 -13 -4 -27 -12 -30 -18 -4 -5 -14 -7 -23 -4 -14 5 -14 11 -1 54 8 26 12 62 9 80 -5 25 -2 33 15 42 23 13 28 40 9 59 -9 9 -8 16 4 29 12 15 13 37 9 113 -4 52 -6 212 -5 355 2 318 2 2089 0 2495 0 177 -5 301 -11 310 -5 8 -17 44 -26 80 l-17 64 32 30 c17 16 47 39 66 51 19 12 41 30 49 39 7 9 17 16 22 16 8 0 50 31 136 100 7 6 16 10 21 10 4 0 24 12 43 26 19 14 40 29 48 33 11 7 10 13 -4 35 -10 14 -23 26 -30 26 -7 0 -42 20 -78 44 -36 24 -70 45 -76 47 -20 7 -220 171 -225 185 -3 7 0 19 7 26 7 7 13 24 14 38 0 14 6 43 13 65 16 56 26 846 11 883 -6 15 -12 80 -14 144 -2 65 -6 121 -10 125 -4 3 -7 19 -7 35 0 15 -6 37 -12 48 -11 17 -9 27 12 65 21 38 36 51 110 87 l85 43 800 3 c833 3 922 -1 948 -37 6 -10 23 -22 37 -26 39 -12 79 -46 113 -95 l32 -45 3 -1555 c4 -1506 -1 -1849 -27 -1915 -10 -25 -28 -93 -43 -165 -6 -30 -17 -62 -24 -70 -7 -8 -24 -46 -38 -85 -15 -38 -33 -83 -41 -100 -7 -16 -16 -37 -20 -45 -3 -8 -11 -24 -18 -35 -7 -11 -43 -74 -81 -140 -38 -66 -90 -145 -116 -175 -25 -30 -66 -82 -90 -115 -24 -33 -63 -82 -86 -110 -22 -27 -44 -60 -48 -72 -4 -11 -18 -24 -31 -27 -27 -7 -33 -24 -11 -32 17 -7 106 53 106 72 0 7 18 23 40 34 22 11 40 24 40 29 0 5 23 36 50 69 28 33 50 65 50 71 0 6 11 17 25 23 15 7 29 24 33 42 6 20 16 32 33 36 19 5 23 12 21 34 -2 17 4 36 15 48 17 19 39 55 103 168 17 30 41 74 54 97 13 23 26 57 30 76 4 19 13 37 20 40 7 3 15 28 19 59 3 29 15 73 26 98 20 46 44 136 63 245 12 66 19 2881 9 3220 -6 185 -7 191 -33 232 -64 98 -163 176 -238 187 -24 4 -50 12 -57 18 -9 7 -234 10 -730 10 -887 0 -993 -2 -993 -13 0 -12 -67 -39 -96 -39 -16 0 -24 -7 -26 -22 -2 -18 -11 -24 -37 -26 -49 -5 -73 4 -109 38 -18 16 -39 30 -47 30 -8 0 -33 16 -54 35 -23 21 -42 32 -46 25 -10 -16 -61 -12 -103 8 -34 16 -93 17 -772 17 -405 1 -740 4 -746 8 -6 3 -30 9 -52 13 -31 5 -42 3 -42 -6z m1590 -136 c129 -11 241 -73 306 -171 l35 -53 2 -628 c1 -345 6 -636 10 -648 8 -18 -2 -28 -75 -77 -46 -31 -109 -75 -142 -97 -32 -22 -60 -40 -63 -40 -3 0 -22 -13 -43 -30 -21 -16 -41 -30 -45 -30 -3 0 -23 -13 -43 -29 -20 -15 -56 -37 -79 -47 -51 -23 -54 -37 -11 -55 18 -7 75 -42 127 -76 51 -35 96 -63 98 -63 3 0 22 -12 42 -27 20 -16 44 -32 53 -38 24 -14 150 -102 170 -118 14 -11 15 -20 7 -58 -6 -27 -8 -727 -7 -1799 3 -1489 5 -1758 17 -1776 37 -56 -29 -72 -93 -24 -22 17 -47 30 -57 30 -9 0 -22 7 -29 15 -7 8 -21 15 -31 15 -10 0 -20 4 -23 9 -3 5 -29 21 -58 37 -29 15 -80 42 -113 61 -33 18 -67 36 -75 40 -8 3 -28 16 -45 28 -16 12 -52 33 -80 46 -27 13 -66 36 -86 51 -20 15 -40 28 -44 28 -4 0 -24 12 -44 28 -20 15 -44 32 -53 37 -88 53 -303 209 -401 291 -249 208 -551 528 -694 736 -245 354 -323 524 -387 841 -14 69 -16 267 -16 1726 l0 1648 31 46 c34 51 109 114 159 133 8 3 29 12 45 19 17 8 82 18 145 22 140 10 1471 7 1590 -3z m382 -1674 c8 -12 24 -20 40 -20 15 0 30 -4 33 -10 3 -5 1 -10 -4 -10 -6 0 -11 -4 -11 -10 0 -5 11 -10 24 -10 14 0 38 -12 53 -26 15 -14 42 -33 58 -41 74 -38 86 -84 36 -134 -16 -16 -32 -29 -36 -29 -4 0 -25 -15 -48 -32 -23 -18 -51 -38 -62 -44 -11 -6 -24 -20 -30 -32 -11 -25 -35 -28 -65 -10 -16 10 -24 10 -41 0 -12 -7 -23 -12 -25 -9 -6 6 20 56 31 60 6 2 -3 2 -20 -1 -16 -2 -35 -8 -41 -14 -8 -6 -28 5 -59 34 -28 26 -55 42 -66 40 -15 -3 -19 3 -19 24 0 24 -3 26 -30 21 -23 -5 -30 -3 -30 8 0 9 -12 20 -27 26 -21 8 -24 12 -13 19 8 5 27 6 42 3 22 -4 28 -2 28 11 0 10 13 21 30 27 36 13 38 24 8 34 -20 6 -18 8 15 15 21 4 43 15 50 24 12 16 36 32 87 58 14 6 33 20 43 30 23 23 34 23 49 -2z"/> <path d="M1930 5850 c-1 -3 -2 -300 -4 -660 -2 -360 -5 -671 -7 -690 -6 -50 20 -50 78 -2 27 22 93 71 148 108 504 342 593 401 608 407 9 3 13 824 4 833 -6 7 -827 11 -827 4z m652 -116 c69 -12 68 -4 55 -631 0 -18 -3 -33 -7 -33 -3 0 -22 -15 -42 -32 -41 -37 -93 -68 -113 -68 -8 0 -17 -10 -20 -21 -6 -18 -13 -21 -46 -16 -42 6 -48 1 -22 -18 19 -14 10 -35 -15 -35 -9 0 -26 -7 -36 -15 -11 -8 -26 -15 -33 -15 -15 0 -33 -13 -65 -47 -12 -13 -29 -23 -39 -23 -9 0 -19 -7 -23 -15 -3 -8 -17 -15 -31 -15 -14 0 -25 -6 -25 -13 0 -8 -11 -20 -25 -27 -57 -30 -59 0 -57 650 1 344 4 362 72 371 61 8 426 10 472 3z"/> <path d="M2675 4267 c-28 -23 -58 -46 -67 -52 -9 -5 -67 -45 -129 -88 -155 -105 -171 -116 -274 -184 -49 -32 -126 -84 -170 -114 -44 -31 -86 -58 -94 -60 -21 -7 -17 -826 5 -959 9 -52 20 -103 25 -112 5 -10 9 -26 9 -35 0 -35 115 -287 173 -378 90 -144 201 -280 389 -476 88 -91 166 -176 175 -188 9 -14 23 -21 36 -19 21 3 22 7 17 73 -8 117 -6 2505 3 2573 l8 62 -28 0 c-18 0 -46 -15 -78 -43z m-39 -222 c12 -30 14 -182 12 -1083 l-2 -1048 -33 -1 c-39 -1 -50 11 -31 34 11 14 11 15 -2 11 -25 -8 -81 45 -173 166 -12 16 -37 44 -54 63 -34 35 -39 48 -24 57 5 3 -16 31 -45 61 -30 30 -54 59 -54 63 0 5 -8 18 -18 30 -10 11 -31 58 -47 104 -15 46 -37 94 -47 107 -10 14 -18 34 -17 45 2 22 -6 51 -22 76 -31 50 -33 60 -15 97 15 31 15 38 3 52 -26 28 -29 76 -29 431 l0 349 30 31 c17 16 40 30 51 30 23 0 27 10 10 27 -18 18 -2 46 21 40 13 -3 31 3 48 17 15 12 52 37 82 56 30 19 64 43 74 52 11 10 23 18 27 18 5 0 27 18 51 40 24 22 51 40 61 40 23 0 90 34 106 54 18 22 20 21 37 -19z"/> <path d="M2487 3974 c-11 -11 3 -24 18 -18 8 4 12 10 9 15 -6 11 -18 12 -27 3z"/> <path d="M1353 6483 c9 -2 25 -2 35 0 9 3 1 5 -18 5 -19 0 -27 -2 -17 -5z"/> <path d="M4266 5850 l-49 -5 1 -402 c0 -221 5 -409 9 -418 5 -8 49 -42 98 -75 48 -33 95 -69 102 -80 8 -11 19 -20 25 -20 7 0 21 -8 32 -18 12 -11 59 -45 106 -77 47 -33 118 -82 158 -109 40 -28 81 -55 90 -61 9 -5 40 -31 68 -57 46 -42 97 -68 109 -56 3 2 0 42 -5 89 -6 48 -10 338 -9 682 1 329 -2 601 -6 605 -8 8 -654 10 -729 2z m631 -81 c12 -6 24 -22 27 -35 4 -13 6 -232 6 -486 -1 -571 -10 -659 -59 -597 -10 13 -42 33 -71 43 -33 12 -55 26 -58 38 -2 10 -15 21 -27 24 -13 3 -31 14 -41 25 -9 10 -22 19 -28 19 -7 0 -19 9 -29 20 -9 11 -22 20 -29 20 -7 0 -47 30 -88 66 -41 36 -99 81 -128 101 -41 27 -51 40 -47 54 5 13 1 19 -10 19 -8 0 -20 12 -26 27 -11 29 -6 596 6 625 10 24 54 51 75 45 10 -2 22 -2 28 2 19 11 475 2 499 -10z"/> </g> </svg> 