<svg width="64" height="64" viewBox="0 0 64 64" fill="none" xmlns="http://www.w3.org/2000/svg">
  <!-- Background -->
  <rect x="4" y="4" width="56" height="56" rx="12" fill="#1E293B"/>

  <!-- Left document (original text) -->
  <rect x="10" y="14" width="18" height="36" rx="4" fill="#0F172A" stroke="#38BDF8" stroke-width="2"/>
  <line x1="14" y1="22" x2="24" y2="22" stroke="#38BDF8" stroke-width="2.5" stroke-linecap="round"/>
  <line x1="14" y1="28" x2="22" y2="28" stroke="#38BDF8" stroke-width="2.5" stroke-linecap="round"/>
  <line x1="14" y1="34" x2="24" y2="34" stroke="#38BDF8" stroke-width="2.5" stroke-linecap="round"/>
  <line x1="14" y1="40" x2="20" y2="40" stroke="#38BDF8" stroke-width="2.5" stroke-linecap="round"/>

  <!-- Right document (modified text) -->
  <rect x="36" y="14" width="18" height="36" rx="4" fill="#0F172A" stroke="#FACC15" stroke-width="2"/>
  <line x1="40" y1="22" x2="50" y2="22" stroke="#FACC15" stroke-width="2.5" stroke-linecap="round"/>
  <line x1="40" y1="28" x2="48" y2="28" stroke="#FACC15" stroke-width="2.5" stroke-linecap="round"/>
  <line x1="40" y1="34" x2="50" y2="34" stroke="#FACC15" stroke-width="2.5" stroke-linecap="round"/>
  <line x1="40" y1="40" x2="46" y2="40" stroke="#FACC15" stroke-width="2.5" stroke-linecap="round"/>

  <!-- Comparison arrows -->
  <path d="M28 26H36" stroke="#22C55E" stroke-width="3" stroke-linecap="round"/>
  <path d="M32 22L36 26L32 30" stroke="#22C55E" stroke-width="3" stroke-linecap="round" stroke-linejoin="round"/>

  <path d="M36 38H28" stroke="#EF4444" stroke-width="3" stroke-linecap="round"/>
  <path d="M32 34L28 38L32 42" stroke="#EF4444" stroke-width="3" stroke-linecap="round" stroke-linejoin="round"/>

  <!-- Bottom diff indicator -->
  <circle cx="24" cy="54" r="2.5" fill="#22C55E"/>
  <circle cx="32" cy="54" r="2.5" fill="#FACC15"/>
  <circle cx="40" cy="54" r="2.5" fill="#EF4444"/>
</svg>