<svg width="64" height="64" viewBox="0 0 64 64" fill="none" xmlns="http://www.w3.org/2000/svg">
  <!-- Background -->
  <rect x="4" y="4" width="56" height="56" rx="12" fill="#1E293B"/>

  <!-- Left curly brace -->
  <path d="M20 16C16 16 16 20 16 22V26C16 28 14 30 12 30C14 30 16 32 16 34V38C16 40 16 44 20 44"
        stroke="#38BDF8" stroke-width="2" stroke-linecap="round"/>

  <!-- Right curly brace -->
  <path d="M44 16C48 16 48 20 48 22V26C48 28 50 30 52 30C50 30 48 32 48 34V38C48 40 48 44 44 44"
        stroke="#38BDF8" stroke-width="2" stroke-linecap="round"/>

  <!-- JSON nodes (structure) -->
  <circle cx="28" cy="24" r="2" fill="#22C55E"/>
  <circle cx="36" cy="24" r="2" fill="#22C55E"/>
  <circle cx="32" cy="32" r="2" fill="#22C55E"/>
  <circle cx="28" cy="40" r="2" fill="#22C55E"/>
  <circle cx="36" cy="40" r="2" fill="#22C55E"/>

  <!-- Connecting lines -->
  <line x1="28" y1="24" x2="32" y2="32" stroke="#22C55E" stroke-width="1.5"/>
  <line x1="36" y1="24" x2="32" y2="32" stroke="#22C55E" stroke-width="1.5"/>
  <line x1="32" y1="32" x2="28" y2="40" stroke="#22C55E" stroke-width="1.5"/>
  <line x1="32" y1="32" x2="36" y2="40" stroke="#22C55E" stroke-width="1.5"/>
</svg>